<?xml version="1.0" encoding="UTF-8" standalone="no"?>
<!DOCTYPE svg PUBLIC "-//W3C//DTD SVG 1.1//EN" "http://www.w3.org/Graphics/SVG/1.1/DTD/svg11.dtd">
<svg version="1.1" xmlns="http://www.w3.org/2000/svg" xmlns:xlink="http://www.w3.org/1999/xlink" preserveAspectRatio="xMidYMid meet" viewBox="0 0 300 300" width="300" height="300"><defs><path d="M162.29 0.5L168.34 1.11L174.32 1.96L180.21 3.05L186.03 4.36L191.76 5.9L197.39 7.65L202.93 9.62L208.36 11.8L213.69 14.17L218.91 16.75L224.01 19.53L228.99 22.49L233.84 25.63L238.56 28.96L243.15 32.46L247.6 36.13L251.9 39.96L256.05 43.95L260.04 48.1L263.87 52.4L267.54 56.85L271.04 61.44L274.37 66.16L277.51 71.01L280.47 75.99L283.25 81.09L285.83 86.31L288.2 91.64L290.38 97.07L292.35 102.61L294.1 108.24L295.64 113.97L296.95 119.79L298.04 125.68L298.89 131.66L299.5 137.71L299.87 143.82L300 150L299.87 156.18L299.5 162.29L298.89 168.34L298.04 174.32L296.95 180.21L295.64 186.03L294.1 191.76L292.35 197.39L290.38 202.93L288.2 208.36L285.83 213.69L283.25 218.91L280.47 224.01L277.51 228.99L274.37 233.84L271.04 238.56L267.54 243.15L263.87 247.6L260.04 251.9L256.05 256.05L251.9 260.04L247.6 263.87L243.15 267.54L238.56 271.04L233.84 274.37L228.99 277.51L224.01 280.47L218.91 283.25L213.69 285.83L208.36 288.2L202.93 290.38L197.39 292.35L191.76 294.1L186.03 295.64L180.21 296.95L174.32 298.04L168.34 298.89L162.29 299.5L156.18 299.87L150 300L143.82 299.87L137.71 299.5L131.66 298.89L125.68 298.04L119.79 296.95L113.97 295.64L108.24 294.1L102.61 292.35L97.07 290.38L91.64 288.2L86.31 285.83L81.09 283.25L75.99 280.47L71.01 277.51L66.16 274.37L61.44 271.04L56.85 267.54L52.4 263.87L48.1 260.04L43.95 256.05L39.96 251.9L36.13 247.6L32.46 243.15L28.96 238.56L25.63 233.84L22.49 228.99L19.53 224.01L16.75 218.91L14.17 213.69L11.8 208.36L9.62 202.93L7.65 197.39L5.9 191.76L4.36 186.03L3.05 180.21L1.96 174.32L1.11 168.34L0.5 162.29L0.13 156.18L0 150L0.13 143.82L0.5 137.71L1.11 131.66L1.96 125.68L3.05 119.79L4.36 113.97L5.9 108.24L7.65 102.61L9.62 97.07L11.8 91.64L14.17 86.31L16.75 81.09L19.53 75.99L22.49 71.01L25.63 66.16L28.96 61.44L32.46 56.85L36.13 52.4L39.96 48.1L43.95 43.95L48.1 39.96L52.4 36.13L56.85 32.46L61.44 28.96L66.16 25.63L71.01 22.49L75.99 19.53L81.09 16.75L86.31 14.17L91.64 11.8L97.07 9.62L102.61 7.65L108.24 5.9L113.97 4.36L119.79 3.05L125.68 1.96L131.66 1.11L137.71 0.5L143.82 0.13L150 0L156.18 0.13L162.29 0.5ZM193.25 89L193.25 227.5L202.27 219.86L226.75 210L226.75 72.5L219.06 78.6L193.25 89ZM133.24 89L133.24 227.5L142.26 219.86L166.74 210L166.74 72.5L159.06 78.6L133.24 89ZM73.75 89L73.75 227.5L82.77 219.86L107.25 210L107.25 72.5L99.57 78.6L73.75 89Z" id="a6OM4j0c4y"></path></defs><g><g><g><use xlink:href="#a6OM4j0c4y" opacity="1" fill="#ffffff" fill-opacity="1"></use><g><use xlink:href="#a6OM4j0c4y" opacity="1" fill-opacity="0" stroke="#000000" stroke-width="1" stroke-opacity="0"></use></g></g></g></g></svg>