<?xml version="1.0" encoding="UTF-8" standalone="no"?>
<!DOCTYPE svg PUBLIC "-//W3C//DTD SVG 1.1//EN" "http://www.w3.org/Graphics/SVG/1.1/DTD/svg11.dtd">
<svg version="1.1" xmlns="http://www.w3.org/2000/svg" xmlns:xlink="http://www.w3.org/1999/xlink" preserveAspectRatio="xMidYMid meet" viewBox="0 0 300 300" width="300" height="300"><defs><path d="M150 0C232.79 0 300 67.21 300 150C300 232.79 232.79 300 150 300C67.21 300 0 232.79 0 150C0 67.21 67.21 0 150 0Z" id="axHr12UdK"></path><path d="M133.24 89L159.06 78.6L166.74 72.5L166.74 210L142.26 219.86L133.24 227.5L133.24 89Z" id="agph128QR"></path><path d="M193.25 89L219.06 78.6L226.75 72.5L226.75 210L202.27 219.86L193.25 227.5L193.25 89Z" id="f1pGFokKHN"></path><path d="M73.75 89L99.57 78.6L107.25 72.5L107.25 210L82.77 219.86L73.75 227.5L73.75 89Z" id="dr1koGI7j"></path></defs><g><g><g><use xlink:href="#axHr12UdK" opacity="1" fill="#0e884e" fill-opacity="1"></use><g><use xlink:href="#axHr12UdK" opacity="1" fill-opacity="0" stroke="#000000" stroke-width="1" stroke-opacity="0"></use></g></g><g><use xlink:href="#agph128QR" opacity="1" fill="#ffffff" fill-opacity="1"></use></g><g><use xlink:href="#f1pGFokKHN" opacity="1" fill="#ffffff" fill-opacity="1"></use></g><g><use xlink:href="#dr1koGI7j" opacity="1" fill="#ffffff" fill-opacity="1"></use></g></g></g></svg>